HIERARCHY
ROOT Hips
{
	OFFSET	0.000000	0.000000	0.000000
	CHANNELS 6 Xposition Yposition Zposition Zrotation Xrotation Yrotation
	JOINT LeftHip
	{
		OFFSET	4.740440	-3.195970	-0.322709
		CHANNELS 3 Zrotation Xrotation Yrotation
		JOINT LeftKnee
		{
			OFFSET	-1.605680	-15.592300	1.005510
			CHANNELS 3 Zrotation Xrotation Yrotation
			JOINT LeftAnkle
			{
				OFFSET	-0.632401	-16.421000	-1.413730
				CHANNELS 3 Zrotation Xrotation Yrotation
				End Site
				{
					OFFSET	0.008423	-3.933000	-1.776750
				}
			}
		}
	}
	JOINT RightHip
	{
		OFFSET	-4.740440	-3.195970	-0.322709
		CHANNELS 3 Zrotation Xrotation Yrotation
		JOINT RightKnee
		{
			OFFSET	1.605680	-15.592300	1.005510
			CHANNELS 3 Zrotation Xrotation Yrotation
			JOINT RightAnkle
			{
				OFFSET	0.632401	-16.421000	-1.413730
				CHANNELS 3 Zrotation Xrotation Yrotation
				End Site
				{
					OFFSET	-0.008423	-3.933000	-1.776750
				}
			}
		}
	}
	JOINT Chest
	{
		OFFSET	0.000000	3.468200	0.078401
		CHANNELS 3 Zrotation Xrotation Yrotation
		JOINT LeftCollar
		{
			OFFSET	3.857650	15.070700	-0.011583
			CHANNELS 3 Zrotation Xrotation Yrotation
			JOINT LeftShoulder
			{
				OFFSET	3.979720	-1.940530	-0.165223
				CHANNELS 3 Zrotation Xrotation Yrotation
				JOINT LeftElbow
				{
					OFFSET	0.615844	-10.986600	-0.673886
					CHANNELS 3 Zrotation Xrotation Yrotation
					JOINT LeftWrist
					{
						OFFSET	0.826843	-10.854500	1.034220
						CHANNELS 3 Zrotation Xrotation Yrotation
						End Site
						{
							OFFSET	-1.679080	-8.456540	0.936217
						}
					}
				}
			}
		}
		JOINT RightCollar
		{
			OFFSET	-3.857650	15.070700	-0.011583
			CHANNELS 3 Zrotation Xrotation Yrotation
			JOINT RightShoulder
			{
				OFFSET	-3.979720	-1.940530	-0.165223
				CHANNELS 3 Zrotation Xrotation Yrotation
				JOINT RightElbow
				{
					OFFSET	-0.615845	-10.986600	-0.673886
					CHANNELS 3 Zrotation Xrotation Yrotation
					JOINT RightWrist
					{
						OFFSET	-0.826843	-10.854500	1.034220
						CHANNELS 3 Zrotation Xrotation Yrotation
						End Site
						{
							OFFSET	1.679080	-8.456540	0.936217
						}
					}
				}
			}
		}
		JOINT Neck
		{
			OFFSET	0.000000	15.101400	0.055730
			CHANNELS 3 Zrotation Xrotation Yrotation
			JOINT Head
			{
				OFFSET	0.000000	4.185120	1.488260
				CHANNELS 3 Zrotation Xrotation Yrotation
				End Site
				{
					OFFSET	0.000000	7.773420	-0.106016
				}
			}
		}
	}
}
MOTION
Frames:     18
Frame Time: 0.016667
-2.500511	38.734665	-13.095166	4.929187	-12.058571	-0.727206	-1.316835	9.617502	3.482139	-4.163616	1.959774	9.610329	2.183183	0.914540	4.587343	-19.460209	-4.908506	-7.517084	3.385094	17.074497	-9.549142	8.218129	2.633784	8.273122	-4.852135	11.856802	0.758171	-4.332906	2.767042	2.774587	5.938197	-2.161400	2.621819	-4.256239	-11.413561	-8.183482	8.931011	3.388723	-19.031149	-1.181435	0.420337	7.701205	0.348562	-2.032048	-8.614380	-6.617764	-10.447249	23.466660	-14.936270	2.424363	13.737966	-2.589154	7.094140	-5.205741	2.228874	2.181896	-10.174644	
-2.493449	38.734154	-13.099150	4.930295	-12.058763	-0.727678	-1.319675	9.610651	3.461699	-4.184656	1.956662	9.630168	2.206551	0.919231	4.589978	-19.462337	-4.937542	-7.522744	3.374086	17.083145	-9.543845	8.221302	2.655127	8.271572	-4.853370	11.856919	0.758901	-4.315981	2.754804	2.755077	5.917647	-2.150956	2.590141	-4.259090	-11.433017	-8.139899	8.942193	3.403814	-19.032333	-1.158944	0.429935	7.676888	0.340185	-2.038005	-8.643295	-6.634506	-10.411059	23.453949	-14.972192	2.400637	13.670432	-2.558977	7.091352	-5.211731	2.203044	2.223435	-10.142528	
-2.485907	38.733711	-13.103407	4.930295	-12.058763	-0.727678	-1.321579	9.602515	3.437100	-4.206491	1.954008	9.653500	2.230971	0.924128	4.592707	-19.463503	-4.967722	-7.529371	3.353567	17.095116	-9.536244	8.233613	2.675973	8.270724	-4.853370	11.856919	0.758901	-4.299160	2.742671	2.735711	5.895822	-2.141802	2.545785	-4.251631	-11.421031	-8.122952	8.948619	3.422796	-19.068197	-1.129861	0.442363	7.645395	0.332246	-2.046721	-8.690135	-6.640127	-10.412370	23.470230	-15.004551	2.388512	13.614781	-2.519086	7.087665	-5.219634	2.171869	2.267209	-10.119570	
-2.478202	38.732731	-13.106660	4.939281	-12.059996	-0.710772	-1.329890	9.595332	3.395808	-4.229904	1.951094	9.678220	2.257164	0.929381	4.595628	-19.474556	-4.988481	-7.549101	3.328140	17.127247	-9.526809	8.254783	2.674573	8.272296	-4.859049	11.859312	0.743699	-4.281314	2.729795	2.715153	5.873438	-2.131332	2.506886	-4.244560	-11.329447	-8.133293	8.991508	3.446004	-19.093634	-1.093443	0.457848	7.606037	0.320316	-2.058064	-8.740714	-6.659327	-10.384172	23.494963	-15.039827	2.339834	13.542075	-2.471215	7.076830	-5.275588	2.139465	2.308158	-10.059201	
-2.467034	38.731735	-13.111423	4.946641	-12.060981	-0.697024	-1.336791	9.589114	3.361219	-4.266280	1.942378	9.697781	2.296694	0.937319	4.600049	-19.483665	-5.007073	-7.565497	3.323354	17.151382	-9.522595	8.256231	2.674368	8.272409	-4.863718	11.861238	0.731343	-4.259423	2.713944	2.689923	5.847194	-2.117366	2.471248	-4.236402	-11.149191	-8.160291	8.983547	3.505285	-19.110462	-1.057798	0.472975	7.567506	0.302464	-2.068551	-8.768440	-6.666808	-10.381418	23.516506	-15.070338	2.325303	13.464883	-2.419098	7.064539	-5.339666	2.109966	2.338216	-9.988074	
-2.462598	38.731384	-13.114205	4.947116	-12.061028	-0.696189	-1.338892	9.581835	3.338284	-4.277488	1.943127	9.719599	2.309880	0.939972	4.601530	-19.485117	-5.029988	-7.571259	3.313773	17.155947	-9.518363	8.259131	2.693920	8.271038	-4.870805	11.859677	0.750846	-4.235921	2.712520	2.634150	5.826025	-2.114549	2.441416	-4.197836	-10.921396	-8.152313	9.007061	3.539328	-19.195045	-1.015376	0.489956	7.510180	0.279392	-2.079124	-8.776570	-6.671578	-10.377414	23.524359	-15.099429	2.342791	13.398533	-2.357722	7.055975	-5.412298	2.079226	2.365227	-9.928047	
-2.454482	38.730911	-13.118643	4.947116	-12.061028	-0.696189	-1.340757	9.574104	3.314902	-4.301531	1.939256	9.741474	2.336594	0.945338	4.604511	-19.488333	-5.033664	-7.561516	3.319149	17.158009	-9.528986	8.259356	2.695383	8.270870	-4.876516	11.858291	0.767834	-4.219276	2.721775	2.569663	5.806752	-2.105823	2.423507	-4.153625	-10.658406	-8.189044	9.091856	3.588595	-19.269850	-0.977389	0.505069	7.459571	0.263076	-2.088441	-8.801327	-6.674441	-10.377517	23.514673	-15.109922	2.322670	13.456437	-2.303813	7.047720	-5.479028	2.051205	2.389153	-9.871952	
-2.446373	38.730423	-13.123133	4.947116	-12.061028	-0.696189	-1.342744	9.565942	3.290233	-4.325228	1.935783	9.764707	2.363051	0.950653	4.607462	-19.488535	-5.033801	-7.560782	3.319563	17.158134	-9.529780	8.259356	2.695383	8.270870	-4.879075	11.857680	0.775402	-4.199544	2.718236	2.523341	5.780137	-2.097776	2.367980	-4.082369	-10.389659	-8.208526	9.077635	3.721915	-19.308825	-0.965864	0.490516	7.392638	0.275063	-2.072026	-8.802979	-6.677507	-10.378635	23.511135	-15.126393	2.302099	13.478386	-2.263462	7.042082	-5.514199	2.032439	2.408529	-9.837995	
-2.434665	38.729797	-13.129044	4.947116	-12.061028	-0.696189	-1.344571	9.558485	3.267768	-4.362251	1.926738	9.784472	2.403347	0.958749	4.611940	-19.488535	-5.033801	-7.560782	3.316022	17.147593	-9.529510	8.260986	2.706336	8.270064	-4.879075	11.857680	0.775402	-4.174377	2.700891	2.491482	5.738856	-2.049358	2.298376	-3.985231	-10.089757	-8.215019	9.123126	3.828623	-19.371469	-0.954409	0.476013	7.329181	0.283715	-2.055687	-8.798336	-6.679995	-10.379086	23.500574	-15.152457	2.316610	13.472391	-2.260676	7.041829	-5.514743	2.051151	2.425856	-9.826141	
-2.426538	38.729610	-13.131136	4.947116	-12.061028	-0.696189	-1.348229	9.559657	3.242226	-4.383883	1.912832	9.803160	2.428937	0.965344	4.619772	-19.488535	-5.033801	-7.560782	3.316022	17.147593	-9.529510	8.260986	2.706336	8.270064	-4.879075	11.857680	0.775402	-4.147928	2.681465	2.460849	5.706338	-2.023472	2.268629	-3.921632	-9.715018	-8.275116	9.127987	3.945470	-19.438007	-0.934613	0.473158	7.278656	0.280144	-2.049975	-8.799184	-6.682104	-10.378745	23.485348	-15.174925	2.337717	13.480401	-2.242151	7.040036	-5.518376	2.047931	2.463686	-9.815218	
-2.421435	38.729912	-13.128542	4.947116	-12.061028	-0.696189	-1.354447	9.571964	3.211262	-4.390422	1.892018	9.827298	2.440578	0.969466	4.626786	-19.498058	-5.032834	-7.564378	3.324710	17.148041	-9.526646	8.260986	2.706336	8.270064	-4.879075	11.857680	0.775402	-4.139179	2.681204	2.434681	5.693919	-2.022048	2.254746	-3.818302	-9.345394	-8.349147	9.089641	4.078342	-19.478508	-0.906328	0.484810	7.248244	0.263063	-2.057761	-8.810708	-6.683736	-10.377851	23.468039	-15.195692	2.360664	13.484703	-2.242151	7.040036	-5.518376	2.059319	2.581831	-9.747451	
-2.413196	38.730240	-13.126472	4.947116	-12.061028	-0.696189	-1.361767	9.587979	3.176890	-4.406740	1.861415	9.847437	2.463485	0.977779	4.641260	-19.508987	-5.031713	-7.568508	3.334680	17.148546	-9.523354	8.260986	2.706336	8.270064	-4.879075	11.857680	0.775402	-4.152312	2.708064	2.405554	5.695717	-2.029008	2.226506	-3.732700	-9.017550	-8.379538	9.080956	4.252580	-19.552670	-0.904362	0.485502	7.246243	0.267124	-2.058270	-8.830556	-6.683874	-10.374235	23.434736	-15.215055	2.366280	13.483839	-2.235622	7.049553	-5.446041	2.149763	2.787856	-9.590848	
-2.405338	38.731026	-13.122593	4.947116	-12.061028	-0.696189	-1.370073	9.616481	3.150322	-4.421143	1.814066	9.858891	2.485917	0.991089	4.655551	-19.520267	-5.030563	-7.572779	3.344964	17.149075	-9.519943	8.260986	2.706336	8.270064	-4.879075	11.857680	0.775402	-4.164082	2.732165	2.379430	5.682302	-1.968259	2.194682	-3.610546	-8.749830	-8.383738	9.035135	4.407827	-19.626982	-0.904362	0.485502	7.246243	0.267124	-2.058270	-8.830556	-6.684029	-10.373827	23.431187	-15.225821	2.367812	13.437136	-2.230447	7.057120	-5.388593	2.311313	3.054352	-9.344613	
-2.397087	38.731834	-13.125400	4.947116	-12.061028	-0.696189	-1.374915	9.640435	3.143377	-4.444889	1.755881	9.845301	2.517915	1.020311	4.674596	-19.531359	-5.029436	-7.576948	3.355086	17.149601	-9.516624	8.260986	2.706336	8.270064	-4.879075	11.857680	0.775402	-4.160877	2.737825	2.355044	5.670540	-1.930778	2.213976	-3.519520	-8.442070	-8.409902	8.998070	4.515876	-19.694780	-0.901049	0.480622	7.225820	0.265183	-2.052914	-8.810174	-6.684029	-10.373827	23.431187	-15.226638	2.368016	13.433415	-2.222991	7.068051	-5.305691	2.589569	3.436981	-9.122464	
-2.391210	38.732224	-13.128469	4.947116	-12.061028	-0.696189	-1.378782	9.650640	3.126603	-4.460002	1.721881	9.848102	2.539071	1.039823	4.688062	-19.537312	-5.028821	-7.579207	3.360512	17.149876	-9.514820	8.260986	2.706336	8.270064	-4.874788	11.858726	0.762642	-4.157381	2.729890	2.357250	5.651200	-1.872139	2.215544	-3.438309	-8.170764	-8.389203	8.980217	4.599438	-19.765856	-0.901014	0.472748	7.210969	0.266807	-2.045472	-8.798919	-6.684541	-10.373677	23.425192	-15.229227	2.360181	13.453835	-2.213997	7.122151	-5.193426	2.892689	3.876482	-8.745085	
-2.386160	38.732971	-13.124304	4.947116	-12.061028	-0.696189	-1.387497	9.673770	3.090602	-4.462217	1.684271	9.876626	2.549218	1.049724	4.694891	-19.537312	-5.028821	-7.579207	3.360512	17.149876	-9.514820	8.260986	2.706336	8.270064	-4.870003	11.859865	0.748480	-4.148648	2.721807	2.342923	5.632345	-1.836786	2.239526	-3.373926	-7.932669	-8.373672	8.965328	4.720746	-19.841228	-0.900290	0.462073	7.187122	0.269493	-2.035393	-8.782291	-6.686451	-10.376827	23.445808	-15.229227	2.360181	13.453835	-2.160542	7.247970	-5.088883	3.203311	4.328586	-8.261067	
-2.379425	38.733742	-13.124004	4.947116	-12.061028	-0.696189	-1.395158	9.695965	3.060955	-4.473414	1.636070	9.891726	2.569416	1.070430	4.708461	-19.537312	-5.028821	-7.579207	3.357059	17.139576	-9.514643	8.262570	2.717050	8.269356	-4.864991	11.861047	0.733666	-4.146419	2.718833	2.334792	5.611806	-1.774289	2.256219	-3.303001	-7.725367	-8.358502	8.970316	4.767117	-19.921894	-0.903112	0.449942	7.167709	0.256248	-2.032242	-8.783064	-6.691075	-10.375772	23.438354	-15.216180	2.357537	13.452988	-2.063785	7.397560	-4.960650	3.474774	4.922785	-7.679417	
-2.371540	38.734734	-13.125351	4.947116	-12.061028	-0.696189	-1.401233	9.725348	3.051215	-4.493939	1.571550	9.877562	2.599183	1.100815	4.730390	-19.537312	-5.028821	-7.579207	3.347299	17.110521	-9.513901	8.267074	2.747237	8.267123	-4.860211	11.862183	0.719563	-4.145899	2.712500	2.340971	5.594356	-1.716374	2.258276	-3.230013	-7.543870	-8.342260	8.924160	4.787771	-19.973537	-0.917238	0.434902	7.164774	0.252676	-2.027969	-8.796622	-6.699101	-10.376107	23.433390	-15.197279	2.347687	13.446553	-2.037457	7.442887	-4.711475	3.776810	5.748464	-7.114295	
